G04 DipTrace 3.2.0.1*
G04 BottomSilk.gbr*
%MOMM*%
G04 #@! TF.FileFunction,Legend,Bot*
G04 #@! TF.Part,Single*
%ADD10C,0.25*%
%ADD82C,0.15*%
%FSLAX35Y35*%
G04*
G71*
G90*
G75*
G01*
G04 BotSilk*
%LPD*%
X-2628590Y1491690D2*
D10*
Y1361790D1*
X-285547Y1104570D2*
X-415447D1*
X-2735810Y-1527533D2*
X-2605910D1*
X-3209000Y-1516383D2*
X-3079100D1*
X-2205751Y1496740D2*
D82*
X-2215409Y1501569D1*
X-2225180Y1511340D1*
X-2230009Y1520999D1*
Y1540428D1*
X-2225180Y1550199D1*
X-2215409Y1559857D1*
X-2205751Y1564799D1*
X-2191151Y1569628D1*
X-2166780D1*
X-2152292Y1564799D1*
X-2142522Y1559857D1*
X-2132863Y1550198D1*
X-2127922Y1540428D1*
Y1520998D1*
X-2132863Y1511340D1*
X-2142522Y1501569D1*
X-2152292Y1496740D1*
X-2127922Y1418111D2*
X-2229897D1*
X-2161951Y1466740D1*
Y1393853D1*
X-529684Y915285D2*
X-539343Y920114D1*
X-549113Y929885D1*
X-553943Y939544D1*
Y958973D1*
X-549113Y968744D1*
X-539343Y978402D1*
X-529684Y983343D1*
X-515084Y988173D1*
X-490713D1*
X-476226Y983343D1*
X-466455Y978402D1*
X-456797Y968743D1*
X-451855Y958973D1*
Y939543D1*
X-456797Y929885D1*
X-466455Y920114D1*
X-476226Y915285D1*
X-534401Y885285D2*
X-539343Y875514D1*
X-553831Y860914D1*
X-451855D1*
X-2453275Y-1445569D2*
X-2448445Y-1435911D1*
X-2438675Y-1426140D1*
X-2429016Y-1421311D1*
X-2409587D1*
X-2399816Y-1426140D1*
X-2390158Y-1435911D1*
X-2385216Y-1445569D1*
X-2380387Y-1460169D1*
Y-1484540D1*
X-2385216Y-1499027D1*
X-2390158Y-1508798D1*
X-2399816Y-1518457D1*
X-2409587Y-1523398D1*
X-2429016D1*
X-2438675Y-1518457D1*
X-2448445Y-1508798D1*
X-2453275Y-1499027D1*
X-2541562Y-1421423D2*
X-2493045D1*
X-2488216Y-1465111D1*
X-2493045Y-1460281D1*
X-2507645Y-1455340D1*
X-2522133D1*
X-2536733Y-1460281D1*
X-2546504Y-1469940D1*
X-2551333Y-1484540D1*
Y-1494198D1*
X-2546504Y-1508798D1*
X-2536733Y-1518569D1*
X-2522133Y-1523398D1*
X-2507645D1*
X-2493045Y-1518569D1*
X-2488216Y-1513627D1*
X-2483275Y-1503969D1*
X-3128935Y-1021669D2*
X-3124106Y-1012011D1*
X-3114335Y-1002240D1*
X-3104677Y-997411D1*
X-3085248D1*
X-3075477Y-1002240D1*
X-3065818Y-1012011D1*
X-3060877Y-1021669D1*
X-3056048Y-1036269D1*
Y-1060640D1*
X-3060877Y-1075127D1*
X-3065818Y-1084898D1*
X-3075477Y-1094557D1*
X-3085248Y-1099498D1*
X-3104677D1*
X-3114335Y-1094557D1*
X-3124106Y-1084898D1*
X-3128935Y-1075127D1*
X-3217223Y-1012011D2*
X-3212394Y-1002352D1*
X-3197794Y-997523D1*
X-3188135D1*
X-3173535Y-1002352D1*
X-3163765Y-1016952D1*
X-3158935Y-1041211D1*
Y-1065469D1*
X-3163765Y-1084898D1*
X-3173535Y-1094669D1*
X-3188135Y-1099498D1*
X-3192965D1*
X-3207452Y-1094669D1*
X-3217223Y-1084898D1*
X-3222052Y-1070298D1*
Y-1065469D1*
X-3217223Y-1050869D1*
X-3207452Y-1041211D1*
X-3192965Y-1036381D1*
X-3188135D1*
X-3173535Y-1041211D1*
X-3163765Y-1050869D1*
X-3158935Y-1065469D1*
X1811044Y-222374D2*
X1913132D1*
Y-280662D1*
X1830585Y-310661D2*
X1825644Y-320432D1*
X1811156Y-335032D1*
X1913132D1*
X-2828634Y1258670D2*
X-2872321D1*
X-2886921Y1263612D1*
X-2891863Y1268441D1*
X-2896692Y1278099D1*
Y1287870D1*
X-2891863Y1297529D1*
X-2886921Y1302470D1*
X-2872321Y1307299D1*
X-2828634D1*
Y1205212D1*
X-2862663Y1258670D2*
X-2896692Y1205212D1*
X-2975321D2*
Y1307187D1*
X-2926692Y1239241D1*
X-2999580D1*
X-4122350Y-421261D2*
Y-464949D1*
X-4127292Y-479549D1*
X-4132121Y-484491D1*
X-4141779Y-489320D1*
X-4151550D1*
X-4161209Y-484491D1*
X-4166150Y-479549D1*
X-4170979Y-464949D1*
Y-421261D1*
X-4068892Y-421262D1*
X-4122350Y-455291D2*
X-4068892Y-489320D1*
X-4170867Y-577607D2*
Y-529090D1*
X-4127179Y-524261D1*
X-4132009Y-529091D1*
X-4136950Y-543690D1*
Y-558178D1*
X-4132009Y-572778D1*
X-4122350Y-582549D1*
X-4107750Y-587378D1*
X-4098092D1*
X-4083492Y-582549D1*
X-4073721Y-572778D1*
X-4068892Y-558178D1*
Y-543691D1*
X-4073721Y-529091D1*
X-4078662Y-524261D1*
X-4088321Y-519320D1*
X-3860730Y-1107299D2*
Y-1150987D1*
X-3865672Y-1165587D1*
X-3870501Y-1170528D1*
X-3880159Y-1175357D1*
X-3889930D1*
X-3899589Y-1170528D1*
X-3904530Y-1165586D1*
X-3909359Y-1150986D1*
Y-1107299D1*
X-3807272D1*
X-3860730Y-1141328D2*
X-3807272Y-1175357D1*
X-3894759Y-1263645D2*
X-3904418Y-1258816D1*
X-3909247Y-1244216D1*
Y-1234557D1*
X-3904418Y-1219957D1*
X-3889818Y-1210186D1*
X-3865559Y-1205357D1*
X-3841301D1*
X-3821872Y-1210187D1*
X-3812101Y-1219957D1*
X-3807272Y-1234557D1*
Y-1239386D1*
X-3812101Y-1253874D1*
X-3821872Y-1263645D1*
X-3836472Y-1268474D1*
X-3841301D1*
X-3855901Y-1263645D1*
X-3865559Y-1253874D1*
X-3870389Y-1239386D1*
Y-1234557D1*
X-3865559Y-1219957D1*
X-3855901Y-1210186D1*
X-3841301Y-1205357D1*
X-2299999Y721987D2*
X-2343686D1*
X-2358286Y726928D1*
X-2363228Y731758D1*
X-2368057Y741416D1*
Y751187D1*
X-2363228Y760845D1*
X-2358286Y765787D1*
X-2343686Y770616D1*
X-2299999D1*
Y668528D1*
X-2334028Y721987D2*
X-2368057Y668528D1*
X-2398057Y751075D2*
X-2407828Y756016D1*
X-2422428Y770504D1*
Y668528D1*
X1650148Y1560834D2*
X1606461D1*
X1591861Y1565775D1*
X1586919Y1570604D1*
X1582090Y1580263D1*
Y1590034D1*
X1586919Y1599692D1*
X1591861Y1604634D1*
X1606461Y1609463D1*
X1650148D1*
Y1507375D1*
X1616119Y1560834D2*
X1582090Y1507375D1*
X1547148Y1585092D2*
Y1589921D1*
X1542319Y1599692D1*
X1537490Y1604521D1*
X1527719Y1609351D1*
X1508290D1*
X1498632Y1604521D1*
X1493802Y1599692D1*
X1488861Y1589921D1*
Y1580263D1*
X1493802Y1570492D1*
X1503461Y1556004D1*
X1552090Y1507375D1*
X1484032D1*
X758345Y-263850D2*
X714657D1*
X700057Y-258908D1*
X695116Y-254079D1*
X690287Y-244421D1*
Y-234650D1*
X695116Y-224991D1*
X700057Y-220050D1*
X714657Y-215221D1*
X758345D1*
Y-317308D1*
X724316Y-263850D2*
X690287Y-317308D1*
X650516Y-215333D2*
X597170D1*
X626257Y-254191D1*
X611657D1*
X601999Y-259021D1*
X597170Y-263850D1*
X592228Y-278450D1*
Y-288108D1*
X597170Y-302708D1*
X606828Y-312479D1*
X621428Y-317308D1*
X636028D1*
X650516Y-312479D1*
X655345Y-307537D1*
X660287Y-297879D1*
X-2048446Y-1875489D2*
X-1946358D1*
X-2048446Y-1841460D2*
Y-1909518D1*
X-1994988Y-1939518D2*
Y-1983318D1*
X-1999817Y-1997806D1*
X-2004758Y-2002748D1*
X-2014417Y-2007577D1*
X-2029017D1*
X-2038675Y-2002748D1*
X-2043617Y-1997806D1*
X-2048446Y-1983318D1*
Y-1939518D1*
X-1946358D1*
X-1929512Y-2037577D2*
Y-2129894D1*
X-2028904Y-2159894D2*
X-2033846Y-2169665D1*
X-2048334Y-2184265D1*
X-1946358D1*
X-2024075Y-2219206D2*
X-2028904D1*
X-2038675Y-2224035D1*
X-2043504Y-2228864D1*
X-2048334Y-2238635D1*
Y-2258064D1*
X-2043504Y-2267723D1*
X-2038675Y-2272552D1*
X-2028904Y-2277494D1*
X-2019246D1*
X-2009475Y-2272552D1*
X-1994988Y-2262894D1*
X-1946358Y-2214265D1*
Y-2282323D1*
X-2048446Y-2312323D2*
X-1946358Y-2351181D1*
X-2048446Y-2390040D1*
X-229542Y1567566D2*
Y1465478D1*
X-195513Y1567566D2*
X-263572D1*
X-293572Y1514108D2*
X-337372D1*
X-351859Y1518937D1*
X-356801Y1523878D1*
X-361630Y1533537D1*
Y1548137D1*
X-356801Y1557795D1*
X-351859Y1562737D1*
X-337372Y1567566D1*
X-293572D1*
Y1465478D1*
X-391630Y1448632D2*
X-483947D1*
X-586835Y1543308D2*
X-582005Y1552966D1*
X-572235Y1562737D1*
X-562576Y1567566D1*
X-543147D1*
X-533376Y1562737D1*
X-523718Y1552966D1*
X-518776Y1543308D1*
X-513947Y1528708D1*
Y1504337D1*
X-518776Y1489849D1*
X-523718Y1480078D1*
X-533376Y1470420D1*
X-543147Y1465478D1*
X-562576D1*
X-572235Y1470420D1*
X-582005Y1480078D1*
X-586835Y1489849D1*
X-646035Y1567566D2*
X-636264Y1562737D1*
X-626605Y1552966D1*
X-621664Y1543308D1*
X-616835Y1528708D1*
Y1504337D1*
X-621664Y1489849D1*
X-626605Y1480078D1*
X-636264Y1470420D1*
X-646035Y1465478D1*
X-665464D1*
X-675122Y1470420D1*
X-684893Y1480078D1*
X-689722Y1489849D1*
X-694552Y1504337D1*
Y1528708D1*
X-689722Y1543308D1*
X-684893Y1552966D1*
X-675122Y1562737D1*
X-665464Y1567566D1*
X-646035D1*
X-802268Y1465478D2*
Y1567566D1*
X-763410Y1465478D1*
X-724552Y1567566D1*
Y1465478D1*
X-832268Y1514108D2*
X-876068D1*
X-890556Y1518937D1*
X-895498Y1523878D1*
X-900327Y1533537D1*
Y1548137D1*
X-895498Y1557795D1*
X-890556Y1562737D1*
X-876068Y1567566D1*
X-832268D1*
Y1465478D1*
X1361591Y-430602D2*
X1463678D1*
X1361591Y-396573D2*
Y-464631D1*
X1415049Y-494631D2*
Y-538431D1*
X1410220Y-552919D1*
X1405278Y-557860D1*
X1395620Y-562690D1*
X1381020D1*
X1371361Y-557860D1*
X1366420Y-552919D1*
X1361591Y-538431D1*
Y-494631D1*
X1463678D1*
X1480524Y-592690D2*
Y-685007D1*
X1361591Y-744207D2*
X1366420Y-734436D1*
X1376191Y-724777D1*
X1385849Y-719836D1*
X1400449Y-715007D1*
X1424820D1*
X1439308Y-719836D1*
X1449078Y-724777D1*
X1458737Y-734436D1*
X1463678Y-744207D1*
Y-763636D1*
X1458737Y-773294D1*
X1449078Y-783065D1*
X1439308Y-787894D1*
X1424820Y-792724D1*
X1400449D1*
X1385849Y-787894D1*
X1376191Y-783065D1*
X1366420Y-773294D1*
X1361591Y-763636D1*
Y-744207D1*
Y-822723D2*
X1434478Y-822724D1*
X1449078Y-827553D1*
X1458737Y-837324D1*
X1463678Y-851924D1*
Y-861582D1*
X1458737Y-876182D1*
X1449078Y-885953D1*
X1434478Y-890782D1*
X1361591D1*
Y-954811D2*
X1463678D1*
X1361591Y-920782D2*
Y-988840D1*
X-1881700Y-997364D2*
Y-1099452D1*
X-1847671Y-997364D2*
X-1915729D1*
X-1945729Y-1050822D2*
X-1989529D1*
X-2004017Y-1045993D1*
X-2008958Y-1041052D1*
X-2013788Y-1031393D1*
Y-1016793D1*
X-2008958Y-1007135D1*
X-2004017Y-1002193D1*
X-1989529Y-997364D1*
X-1945729D1*
Y-1099452D1*
X-2043788Y-1116298D2*
X-2136105D1*
X-2166105Y-1045993D2*
X-2209792D1*
X-2224392Y-1041052D1*
X-2229334Y-1036222D1*
X-2234163Y-1026564D1*
Y-1016793D1*
X-2229334Y-1007135D1*
X-2224392Y-1002193D1*
X-2209792Y-997364D1*
X-2166105D1*
Y-1099452D1*
X-2200134Y-1045993D2*
X-2234163Y-1099452D1*
X-2327280Y-997364D2*
X-2264163D1*
Y-1099452D1*
X-2327280D1*
X-2264163Y-1045993D2*
X-2303022D1*
X-2420509Y-997364D2*
X-2357280D1*
Y-1099452D1*
Y-1045993D2*
X-2396138D1*
M02*
