M48
METRIC,0000.00
T01C0.4
T02C0.75
T03C0.8
T04C0.9
T05C0.965
T06C1.0
T07C1.1
T08C1.2
T09C2.4
T10C3.18
%
T01
X+001034Y+000814
X+001537Y-000452
X+001835Y-000299
X-002154Y+001140
X-002589Y-000667
X-002530Y-001336
X-002840Y-001429
X-002996Y-001399
X-003638Y-001450
X-003737Y-000497
T02
X+000566Y+001231
X+000566Y+001081
X+001693Y+000072
X+001693Y-000078
T03
X-003581Y-001766
X-003581Y-001957
X-003581Y-002147
X-003581Y-002338
X-003581Y-002528
X-003375Y-002528
X-003391Y-002338
X-003391Y-002147
X-003391Y-001957
X-003391Y-001766
X-003152Y-002524
X-002914Y-002519
X-002692Y-002517
X-002482Y-002516
X-002470Y-002338
X-002470Y-002147
X-002279Y-002147
X-002279Y-001957
X-002279Y-001766
X-002470Y-001766
X-002470Y-001957
X-002279Y-002338
X-002279Y-002528
T04
X+002012Y-000545
X+002012Y-000345
X-000138Y-000231
X-000138Y+000023
X-000138Y+000277
X-000138Y+000531
X-000138Y+000785
X-000138Y+001039
X-000138Y+001293
X-000900Y+001293
X-000900Y+001039
X-000900Y+000785
X-000900Y+000531
X-000900Y+000277
X-000900Y+000023
X-000900Y-000231
X-001165Y-000264
X-001165Y-000010
X-001165Y+000244
X-001165Y+000498
X-001165Y+000752
X-001165Y+001006
X-001165Y+001260
X-001927Y+001260
X-001927Y+001006
X-001927Y+000752
X-001927Y+000498
X-001927Y+000244
X-001927Y-000010
X-001927Y-000264
X-002204Y-000227
X-002204Y+000027
X-002204Y+000281
X-002204Y+000535
X-002338Y+000914
X-002592Y+000914
X-002846Y+000914
X-003100Y+000914
X-002966Y+000535
X-002966Y+000281
X-002966Y+000027
X-002966Y-000227
X-002846Y+001676
X-002592Y+001676
X-002338Y+001676
X-003100Y+001676
T05
X-003862Y-000144
X-003608Y-000144
X-003354Y-000144
T06
X-003830Y-000856
X-003230Y-000856
T07
X+000550Y+000141
X+000550Y+000395
X+000550Y+000649
X+001085Y+000639
X+001085Y+000385
X+001085Y+000131
T08
X+001001Y+001056
X+000994Y+001396
X+002099Y+001396
X+002106Y+001056
X+001215Y-000436
X+000110Y-000436
X-001682Y-001727
X+002128Y-001727
T09
X-001682Y-000894
T10
X-000692Y-001727
X+001138Y-001727
T00
M30
