G04 DipTrace 3.2.0.1*
G04 Top.gbr*
%MOMM*%
G04 #@! TF.FileFunction,Copper,L1,Top*
G04 #@! TF.Part,Single*
G04 #@! TA.AperFunction,Conductor*
%ADD14C,0.5*%
%ADD15C,0.2*%
G04 #@! TA.AperFunction,CopperBalancing*
%ADD16C,0.635*%
G04 #@! TA.AperFunction,ComponentPad*
%ADD19R,1.25X1.25*%
%ADD20C,1.25*%
%ADD21R,1.8X1.8*%
%ADD22C,1.8*%
%ADD23R,2.4X2.65*%
%ADD24R,2.4X2.95*%
G04 #@! TA.AperFunction,ComponentPad*
%ADD26R,1.9X1.9*%
%ADD27C,1.9*%
%ADD28R,1.5X1.5*%
%ADD29C,1.5*%
%ADD31R,1.524X1.524*%
%ADD32C,1.524*%
%ADD34R,1.0X2.75*%
%ADD35R,5.55X6.15*%
G04 #@! TA.AperFunction,ViaPad*
%ADD36C,0.7*%
%ADD38C,1.6*%
%FSLAX35Y35*%
G04*
G71*
G90*
G75*
G01*
G04 Top*
%LPD*%
X-3581027Y-1766200D2*
D14*
X-3390523D1*
X-3581027D2*
Y-1956697D1*
X-3581023Y-1956700D1*
Y-2147197D1*
X-3581027Y-2147200D1*
Y-2337697D1*
X-3581023Y-2337700D1*
Y-2528197D1*
X-3581027Y-2528200D1*
X-3374650D1*
Y-2353570D1*
X-3390520Y-2337700D1*
Y-2147203D1*
X-3390523Y-2147200D1*
Y-1956703D1*
X-3390520Y-1956700D1*
X-3581023D1*
X-3390523Y-2147200D2*
X-3581027D1*
X-3390520Y-2337700D2*
X-3581023D1*
X-3374650Y-2528200D2*
X-3151523D1*
Y-2524370D1*
X-2914277D1*
Y-2518783D1*
X-2692027D1*
Y-2517030D1*
X-2482157D1*
Y-2515813D1*
X-2279270D1*
Y-2528200D1*
Y-2337703D1*
X-2279267Y-2337700D1*
X-2469770D1*
Y-2515813D1*
X-2482157D1*
X-2469770Y-2337700D2*
Y-2147200D1*
X-2279267Y-2337700D2*
Y-2147203D1*
X-2279270Y-2147200D1*
X-2469770D1*
Y-1956700D1*
X-2279267D1*
Y-2147197D1*
Y-1956700D2*
Y-1766203D1*
X-2279270Y-1766200D1*
X-2469770D1*
Y-1956700D1*
X-1927137Y-264470D2*
D15*
Y-254000D1*
X-1835250D1*
X-1214337Y366913D1*
X-1063273D1*
X-899553Y530633D1*
X1693237Y71820D2*
X1811030D1*
X2015840Y-132990D1*
Y-340840D1*
X2012087Y-344593D1*
X1693237Y71820D2*
X1652200D1*
X1084693Y639327D1*
X-2966157Y-227023D2*
Y-488857D1*
X-2990460Y-513160D1*
X-1927137Y-264470D2*
X-1902187D1*
X-2094993Y-457277D1*
X-2934577D1*
X-2990460Y-513160D1*
X-2742550D1*
X-2588597Y-667113D1*
X2128257Y-1726793D2*
X2177480D1*
X2155330Y-1704643D1*
Y-431863D1*
X2068060Y-344593D1*
X2012087D1*
X-3099770Y1675777D2*
X-2337770Y913777D1*
X-2692027Y-1321700D2*
D14*
Y-1023597D1*
X-2694067Y-1021557D1*
X-2337770Y913777D2*
D15*
X-2186950D1*
X-1985063Y1115663D1*
X-1309003D1*
X-1165137Y1259530D1*
X-3862370Y-144157D2*
D14*
X-3714617Y-291910D1*
X-3595347D1*
X-2840000Y-1047257D1*
Y-1428750D1*
X-2529667Y-1335573D2*
X-2678153D1*
X-2692027Y-1321700D1*
X-3220000Y698500D2*
D15*
Y534820D1*
X-2966157Y280977D1*
X-3220000Y698500D2*
X-3061047D1*
X-2845770Y913777D1*
X-3960460Y-528160D2*
X-3776830D1*
X-3742867Y-494197D1*
Y-496683D1*
X-3737407D1*
X-3690460Y-1183160D2*
Y-1282933D1*
X-3629817Y-1343577D1*
Y-1449790D1*
X-3637723D1*
X-3601540Y397737D2*
Y-137327D1*
X-3608370Y-144157D1*
X-2153743Y1140223D2*
X-2046443D1*
X-1927137Y1259530D1*
X549530Y394667D2*
X495483D1*
X377450Y276633D1*
X-137553D1*
X-3148027Y-1321700D2*
D14*
Y-1478440D1*
X-3075147Y-1551320D1*
X-1857217D1*
X-1681743Y-1726793D1*
D15*
X-1691043D1*
X-340000Y-375750D1*
Y50273D1*
X-113640Y276633D1*
X-137553D1*
X-3148027Y-1321700D2*
D14*
X-3073673D1*
X-2996233Y-1399140D1*
X565800Y1231147D2*
D15*
X54960D1*
X-137553Y1038633D1*
X993800Y1396447D2*
X-33740D1*
X-137553Y1292633D1*
X1034367Y813750D2*
Y807023D1*
X769130Y541787D1*
Y360267D1*
X549530Y140667D1*
X565800Y1081147D2*
X158960D1*
X-137553Y784633D1*
X565800Y1081147D2*
Y664937D1*
X549530Y648667D1*
X1536803Y-451733D2*
Y-20067D1*
X1131410Y385327D1*
X1084693D1*
X1835293Y-298647D2*
X1891133Y-354487D1*
Y-428940D1*
X2006787Y-544593D1*
X2012087D1*
D36*
X1835293Y-298647D3*
X1034367Y813750D3*
X-2153743Y1140223D3*
X-2840000Y-1428750D3*
X-2588597Y-667113D3*
X-3637723Y-1449790D3*
D38*
X-3581027Y-1766200D3*
X-3581023Y-1956700D3*
X-3581027Y-2147200D3*
X-3581023Y-2337700D3*
X-3581027Y-2528200D3*
X-3390523Y-1766200D3*
X-3390520Y-1956700D3*
X-3390523Y-2147200D3*
X-3390520Y-2337700D3*
X-3374650Y-2528200D3*
X-2469770Y-1766200D3*
Y-1956700D3*
Y-2147200D3*
Y-2337700D3*
X-2482157Y-2515813D3*
X-2279270Y-1766200D3*
X-2279267Y-1956700D3*
X-2279270Y-2147200D3*
X-2279267Y-2337700D3*
X-2279270Y-2528200D3*
X-3151523Y-2524370D3*
X-2914277Y-2518783D3*
X-2692027Y-2517030D3*
D36*
X1536803Y-451733D3*
X-2996233Y-1399140D3*
X-2529667Y-1335573D3*
X-3737407Y-496683D3*
X-3655570Y-1734117D2*
D16*
X-2190340D1*
X-3655477Y-1797283D2*
X-2190340D1*
X-3655293Y-1860450D2*
X-2190340D1*
X-3655203Y-1923617D2*
X-2190340D1*
X-3655113Y-1986783D2*
X-2190340D1*
X-3655020Y-2049950D2*
X-2190340D1*
X-3654930Y-2113117D2*
X-2190340D1*
X-3654840Y-2176283D2*
X-2190340D1*
X-3654657Y-2239450D2*
X-2190340D1*
X-3654567Y-2302617D2*
X-2190340D1*
X-3654473Y-2365783D2*
X-2190340D1*
X-3654383Y-2428950D2*
X-2190340D1*
X-3654293Y-2492117D2*
X-2190340D1*
X-3654200Y-2555283D2*
X-2190340D1*
X-2184000Y-1671037D2*
X-3662013Y-1675130D1*
X-3660453Y-2591783D1*
X-2183960Y-2591700D1*
X-2184027Y-1671067D1*
D19*
X565800Y1231147D3*
D20*
Y1081147D3*
D19*
X1693237Y-78180D3*
D20*
Y71820D3*
D21*
X1000787Y1055637D3*
D22*
X2105787D3*
D21*
X993800Y1396447D3*
D22*
X2098800D3*
D21*
X110480Y-435537D3*
D22*
X1215480D3*
D23*
X-2990460Y-513160D3*
D24*
X-3690460Y-1183160D3*
X-3960460Y-528160D3*
D26*
X-1681743Y-1726793D3*
D27*
X2128257D3*
D28*
X2012087Y-544593D3*
D29*
Y-344593D3*
D31*
X-3862370Y-144157D3*
D32*
X-3608370D3*
X-3354370D3*
D28*
X-2694067Y-1021557D3*
X-3601540Y397737D3*
X-3220000Y698500D3*
X-2337770Y1675777D3*
D29*
X-2591770D3*
X-2845770D3*
X-3099770D3*
Y913777D3*
X-2845770D3*
X-2591770D3*
X-2337770D3*
D28*
X-1927137Y1259530D3*
D29*
Y1005530D3*
Y751530D3*
Y497530D3*
Y243530D3*
Y-10470D3*
Y-264470D3*
X-1165137D3*
Y-10470D3*
Y243530D3*
Y497530D3*
Y751530D3*
Y1005530D3*
Y1259530D3*
D34*
X-2692027Y-1321700D3*
X-3148027D3*
D35*
X-2920027Y-1991700D3*
D28*
X-137553Y-231367D3*
D29*
Y22633D3*
Y276633D3*
Y530633D3*
Y784633D3*
Y1038633D3*
Y1292633D3*
X-899553D3*
Y1038633D3*
Y784633D3*
Y530633D3*
Y276633D3*
Y22633D3*
Y-231367D3*
D28*
X-2966157Y534977D3*
D29*
Y280977D3*
Y26977D3*
Y-227023D3*
X-2204157D3*
Y26977D3*
Y280977D3*
Y534977D3*
D26*
X549530Y140667D3*
D27*
Y394667D3*
Y648667D3*
D26*
X1084693Y131327D3*
D27*
Y385327D3*
Y639327D3*
M02*
