G04 DipTrace 3.2.0.1*
G04 TopDimension.gbr*
%MOMM*%
G04 #@! TF.FileFunction,Drawing,Top*
G04 #@! TF.Part,Single*
%ADD13C,0.035*%
%ADD83C,0.15686*%
%FSLAX35Y35*%
G04*
G71*
G90*
G75*
G01*
G04 TopDimension*
%LPD*%
X-4400000Y1968500D2*
D13*
Y2463000D1*
X2460000Y1968500D2*
Y2463000D1*
X-970000Y2413000D2*
X-4300000D1*
G36*
X-4400000D2*
X-4300000Y2433000D1*
Y2393000D1*
X-4400000Y2413000D1*
G37*
X-970000D2*
D13*
X2360000D1*
G36*
X2460000D2*
X2360000Y2393000D1*
Y2433000D1*
X2460000Y2413000D1*
G37*
X-4400000Y1968500D2*
D13*
X-5370000D1*
X-4400000Y-2921000D2*
X-5370000D1*
X-5320000Y-476250D2*
Y1868500D1*
G36*
Y1968500D2*
X-5300000Y1868500D1*
X-5340000D1*
X-5320000Y1968500D1*
G37*
Y-476250D2*
D13*
Y-2821000D1*
G36*
Y-2921000D2*
X-5340000Y-2821000D1*
X-5300000D1*
X-5320000Y-2921000D1*
G37*
X-1052903Y2531503D2*
D83*
X-1057733Y2541161D1*
X-1072333Y2545991D1*
X-1081991D1*
X-1096591Y2541161D1*
X-1106362Y2526561D1*
X-1111191Y2502303D1*
Y2478045D1*
X-1106362Y2458615D1*
X-1096591Y2448845D1*
X-1081991Y2444015D1*
X-1077162D1*
X-1062674Y2448845D1*
X-1052903Y2458615D1*
X-1048074Y2473215D1*
Y2478045D1*
X-1052903Y2492645D1*
X-1062674Y2502303D1*
X-1077162Y2507132D1*
X-1081991D1*
X-1096591Y2502303D1*
X-1106362Y2492645D1*
X-1111191Y2478045D1*
X-992443Y2545991D2*
X-1006931Y2541161D1*
X-1011872Y2531503D1*
Y2521732D1*
X-1006931Y2512074D1*
X-997272Y2507132D1*
X-977843Y2502303D1*
X-963243Y2497474D1*
X-953585Y2487703D1*
X-948755Y2478045D1*
Y2463445D1*
X-953585Y2453786D1*
X-958414Y2448845D1*
X-973014Y2444015D1*
X-992443D1*
X-1006931Y2448845D1*
X-1011872Y2453786D1*
X-1016702Y2463445D1*
Y2478045D1*
X-1011872Y2487703D1*
X-1002102Y2497474D1*
X-987614Y2502303D1*
X-968185Y2507132D1*
X-958414Y2512074D1*
X-953585Y2521732D1*
Y2531503D1*
X-958414Y2541161D1*
X-973014Y2545991D1*
X-992443D1*
X-912554Y2453786D2*
X-917383Y2448845D1*
X-912554Y2444015D1*
X-907612Y2448845D1*
X-912554Y2453786D1*
X-817952Y2531503D2*
X-822781Y2541161D1*
X-837381Y2545991D1*
X-847040D1*
X-861640Y2541161D1*
X-871410Y2526561D1*
X-876240Y2502303D1*
Y2478045D1*
X-871410Y2458615D1*
X-861640Y2448845D1*
X-847040Y2444015D1*
X-842210D1*
X-827723Y2448845D1*
X-817952Y2458615D1*
X-813123Y2473215D1*
Y2478045D1*
X-817952Y2492645D1*
X-827723Y2502303D1*
X-842210Y2507132D1*
X-847040D1*
X-861640Y2502303D1*
X-871410Y2492645D1*
X-876240Y2478045D1*
X-5351015Y-623413D2*
X-5452991D1*
X-5385045Y-672042D1*
Y-599154D1*
X-5452991Y-543523D2*
X-5448161Y-558011D1*
X-5438503Y-562952D1*
X-5428732D1*
X-5419074Y-558011D1*
X-5414132Y-548352D1*
X-5409303Y-528923D1*
X-5404474Y-514323D1*
X-5394703Y-504665D1*
X-5385045Y-499836D1*
X-5370445D1*
X-5360786Y-504665D1*
X-5355845Y-509494D1*
X-5351015Y-524094D1*
Y-543523D1*
X-5355845Y-558011D1*
X-5360786Y-562952D1*
X-5370445Y-567782D1*
X-5385045D1*
X-5394703Y-562952D1*
X-5404474Y-553182D1*
X-5409303Y-538694D1*
X-5414132Y-519265D1*
X-5419074Y-509494D1*
X-5428732Y-504665D1*
X-5438503D1*
X-5448161Y-509494D1*
X-5452991Y-524094D1*
Y-543523D1*
X-5360786Y-463634D2*
X-5355845Y-468463D1*
X-5351015Y-463634D1*
X-5355845Y-458692D1*
X-5360786Y-463634D1*
X-5452991Y-403061D2*
X-5448161Y-417549D1*
X-5438503Y-422490D1*
X-5428732D1*
X-5419074Y-417549D1*
X-5414132Y-407890D1*
X-5409303Y-388461D1*
X-5404474Y-373861D1*
X-5394703Y-364203D1*
X-5385045Y-359374D1*
X-5370445D1*
X-5360786Y-364203D1*
X-5355845Y-369032D1*
X-5351015Y-383632D1*
Y-403061D1*
X-5355845Y-417549D1*
X-5360786Y-422490D1*
X-5370445Y-427320D1*
X-5385045D1*
X-5394703Y-422490D1*
X-5404474Y-412720D1*
X-5409303Y-398232D1*
X-5414132Y-378803D1*
X-5419074Y-369032D1*
X-5428732Y-364203D1*
X-5438503D1*
X-5448161Y-369032D1*
X-5452991Y-383632D1*
Y-403061D1*
X-5419074Y-264772D2*
X-5404474Y-269713D1*
X-5394703Y-279372D1*
X-5389874Y-293972D1*
Y-298801D1*
X-5394703Y-313401D1*
X-5404474Y-323059D1*
X-5419074Y-328001D1*
X-5423903D1*
X-5438503Y-323059D1*
X-5448161Y-313401D1*
X-5452991Y-298801D1*
Y-293972D1*
X-5448161Y-279372D1*
X-5438503Y-269713D1*
X-5419074Y-264772D1*
X-5394703D1*
X-5370445Y-269713D1*
X-5355845Y-279372D1*
X-5351015Y-293972D1*
Y-303630D1*
X-5355845Y-318230D1*
X-5365615Y-323059D1*
M02*
