G04 DipTrace 3.2.0.1*
G04 TopSilk.gbr*
%MOMM*%
G04 #@! TF.FileFunction,Legend,Top*
G04 #@! TF.Part,Single*
%ADD10C,0.25*%
%ADD25O,0.59937X0.60167*%
%ADD33C,0.39142*%
%ADD82C,0.15*%
%FSLAX35Y35*%
G04*
G71*
G90*
G75*
G01*
G04 TopSilk*
%LPD*%
X565800Y956147D2*
D10*
G02X565800Y956147I0J199996D01*
G01*
X535801Y1436159D2*
X595799D1*
X565800Y1466147D2*
Y1406171D1*
X1693237Y196820D2*
G02X1693237Y196820I0J-199996D01*
G01*
X1723236Y-283192D2*
X1663237D1*
X1693237Y-313180D2*
Y-253204D1*
X1312992Y915637D2*
Y1195637D1*
X1318132D2*
X1788442D1*
X1388807Y915637D2*
Y1195637D1*
X1788442Y915637D2*
Y1195637D1*
X1318132Y915637D2*
X1788442D1*
X1306005Y1256447D2*
Y1536447D1*
X1311145D2*
X1781455D1*
X1381820Y1256447D2*
Y1536447D1*
X1781455Y1256447D2*
Y1536447D1*
X1311145Y1256447D2*
X1781455D1*
X422685Y-575537D2*
Y-295537D1*
X427825D2*
X898135D1*
X498500Y-575537D2*
Y-295537D1*
X898135Y-575537D2*
Y-295537D1*
X427825Y-575537D2*
X898135D1*
X-4130436Y-605620D2*
Y-1105700D1*
X-3855486D1*
X-4130436Y-605620D2*
X-4125501D1*
X-3795420D2*
X-3155421D1*
X-3525405Y-1105700D2*
X-2930526D1*
Y-690645D1*
X-4280460Y-655685D2*
Y-1055635D1*
Y-655685D2*
X-4130436D1*
X-4280460Y-1055635D2*
X-4130436D1*
D25*
X-1994775Y-1726862D3*
X2287257Y-2641793D2*
D10*
X-1841052D1*
Y-1006856D1*
X-1511615Y-811742D2*
X2287257D1*
Y-2641793D1*
X1892087Y-224593D2*
X2132087D1*
Y-664593D1*
X1892087D1*
Y-224593D1*
X-3925743Y20943D2*
Y198743D1*
X-4052870Y-271157D2*
Y236843D1*
X-3163870D2*
X-4052870D1*
X-3163870Y-271157D2*
Y236843D1*
Y-271157D2*
X-4052870D1*
X-4014643Y109843D2*
G02X-4014643Y109843I88900J0D01*
G01*
X-2218770Y1034765D2*
X-3218770D1*
Y1554788D2*
Y1034765D1*
X-2218770Y1554788D2*
X-3218770D1*
X-2218770D2*
Y1354786D1*
Y1034765D2*
Y1234767D1*
Y1354786D2*
G03X-2218770Y1234767I10J-60010D01*
G01*
X-1286125Y1477530D2*
Y-482470D1*
X-1806148D2*
X-1286125D1*
X-1806148Y1477530D2*
Y-482470D1*
Y1477530D2*
X-1606146D1*
X-1286125D2*
X-1486127D1*
X-1606146D2*
G03X-1486127Y1477530I60010J34D01*
G01*
X-2590014Y-1501752D2*
X-3250013D1*
X-2590014Y-2201749D2*
Y-1501752D1*
Y-2201749D2*
X-2609992D1*
X-3250013D2*
Y-1501752D1*
Y-2201749D2*
X-3230036D1*
D33*
X-2592384Y-1209789D3*
X-778565Y-449367D2*
D10*
Y1510633D1*
X-258542D2*
X-778565D1*
X-258542Y-449367D2*
Y1510633D1*
Y-449367D2*
X-458544D1*
X-778565D2*
X-578563D1*
X-458544D2*
G03X-578563Y-449367I-60010J-34D01*
G01*
X-2325145Y653977D2*
Y-346023D1*
X-2845168D2*
X-2325145D1*
X-2845168Y653977D2*
Y-346023D1*
Y653977D2*
X-2645166D1*
X-2325145D2*
X-2525147D1*
X-2645166D2*
G03X-2525147Y653977I60010J10D01*
G01*
X279530Y-105333D2*
X729530D1*
Y894667D1*
X279530D1*
Y-105333D1*
X369530D2*
Y894667D1*
X814693Y-114673D2*
X1264693D1*
Y885327D1*
X814693D1*
Y-114673D1*
X904693D2*
Y885327D1*
X558215Y1537308D2*
D82*
X553385Y1546966D1*
X543615Y1556737D1*
X533956Y1561566D1*
X514527D1*
X504756Y1556737D1*
X495098Y1546966D1*
X490156Y1537308D1*
X485327Y1522708D1*
Y1498337D1*
X490156Y1483849D1*
X495098Y1474078D1*
X504756Y1464420D1*
X514527Y1459478D1*
X533956D1*
X543615Y1464420D1*
X553385Y1474078D1*
X558215Y1483849D1*
X593156Y1537195D2*
Y1542025D1*
X597985Y1551795D1*
X602815Y1556625D1*
X612585Y1561454D1*
X632015D1*
X641673Y1556625D1*
X646502Y1551795D1*
X651444Y1542025D1*
Y1532366D1*
X646502Y1522595D1*
X636844Y1508108D1*
X588215Y1459478D1*
X656273D1*
X1680651Y321008D2*
X1675822Y330666D1*
X1666051Y340437D1*
X1656393Y345266D1*
X1636964D1*
X1627193Y340437D1*
X1617534Y330666D1*
X1612593Y321008D1*
X1607764Y306408D1*
Y282037D1*
X1612593Y267549D1*
X1617534Y257778D1*
X1627193Y248120D1*
X1636964Y243178D1*
X1656393D1*
X1666051Y248120D1*
X1675822Y257778D1*
X1680651Y267549D1*
X1720422Y345154D2*
X1773768D1*
X1744681Y306295D1*
X1759281D1*
X1768939Y301466D1*
X1773768Y296637D1*
X1778710Y282037D1*
Y272378D1*
X1773768Y257778D1*
X1764110Y248008D1*
X1749510Y243178D1*
X1734910D1*
X1720422Y248008D1*
X1715593Y252949D1*
X1710651Y262608D1*
X1470228Y867833D2*
Y765745D1*
X1504257D1*
X1518857Y770687D1*
X1528628Y780345D1*
X1533457Y790116D1*
X1538287Y804604D1*
Y828974D1*
X1533457Y843574D1*
X1528628Y853233D1*
X1518857Y863004D1*
X1504257Y867833D1*
X1470228D1*
X1573228Y843462D2*
Y848291D1*
X1578057Y858062D1*
X1582887Y862891D1*
X1592657Y867721D1*
X1612087D1*
X1621745Y862891D1*
X1626574Y858062D1*
X1631516Y848291D1*
Y838633D1*
X1626574Y828862D1*
X1616916Y814374D1*
X1568287Y765745D1*
X1636345D1*
X1487529Y1726593D2*
Y1624505D1*
X1521558D1*
X1536158Y1629447D1*
X1545929Y1639105D1*
X1550758Y1648876D1*
X1555587Y1663364D1*
Y1687734D1*
X1550758Y1702334D1*
X1545929Y1711993D1*
X1536158Y1721764D1*
X1521558Y1726593D1*
X1487529D1*
X1585587Y1707051D2*
X1595358Y1711993D1*
X1609958Y1726481D1*
Y1624505D1*
X579922Y-147091D2*
Y-249178D1*
X613951D1*
X628551Y-244237D1*
X638322Y-234578D1*
X643151Y-224807D1*
X647980Y-210320D1*
Y-185949D1*
X643151Y-171349D1*
X638322Y-161691D1*
X628551Y-151920D1*
X613951Y-147091D1*
X579922D1*
X687751Y-147203D2*
X741097D1*
X712009Y-186061D1*
X726609D1*
X736268Y-190891D1*
X741097Y-195720D1*
X746038Y-210320D1*
Y-219978D1*
X741097Y-234578D1*
X731438Y-244349D1*
X716838Y-249178D1*
X702238D1*
X687751Y-244349D1*
X682922Y-239407D1*
X677980Y-229749D1*
X-4067648Y-1165781D2*
Y-1243497D1*
X-4072477Y-1258097D1*
X-4077419Y-1262927D1*
X-4087077Y-1267868D1*
X-4096848D1*
X-4106506Y-1262927D1*
X-4111336Y-1258097D1*
X-4116277Y-1243497D1*
Y-1233839D1*
X-4032706Y-1190151D2*
Y-1185322D1*
X-4027877Y-1175551D1*
X-4023048Y-1170722D1*
X-4013277Y-1165893D1*
X-3993848D1*
X-3984189Y-1170722D1*
X-3979360Y-1175551D1*
X-3974419Y-1185322D1*
Y-1194981D1*
X-3979360Y-1204751D1*
X-3989019Y-1219239D1*
X-4037648Y-1267868D1*
X-3969589D1*
X106542Y-658847D2*
Y-736564D1*
X101713Y-751164D1*
X96771Y-755993D1*
X87113Y-760935D1*
X77342D1*
X67684Y-755993D1*
X62854Y-751164D1*
X57913Y-736564D1*
Y-726906D1*
X146313Y-658959D2*
X199659D1*
X170571Y-697818D1*
X185171D1*
X194830Y-702647D1*
X199659Y-707476D1*
X204601Y-722076D1*
Y-731735D1*
X199659Y-746335D1*
X190001Y-756106D1*
X175401Y-760935D1*
X160801D1*
X146313Y-756106D1*
X141484Y-751164D1*
X136542Y-741506D1*
X1743641Y-447464D2*
X1821358D1*
X1835958Y-452293D1*
X1840787Y-457235D1*
X1845728Y-466893D1*
Y-476664D1*
X1840787Y-486322D1*
X1835957Y-491151D1*
X1821357Y-496093D1*
X1811699D1*
X1763182Y-417464D2*
X1758241Y-407693D1*
X1743753Y-393093D1*
X1845728D1*
X-3931428Y368410D2*
X-3887741D1*
X-3873141Y373352D1*
X-3868199Y378181D1*
X-3863370Y387839D1*
Y397610D1*
X-3868199Y407269D1*
X-3873141Y412210D1*
X-3887741Y417039D1*
X-3931428D1*
Y314952D1*
X-3897399Y368410D2*
X-3863370Y314952D1*
X-3813941D2*
X-3765312Y416927D1*
X-3833370D1*
X-2521595Y-952327D2*
Y-1054415D1*
X-2555625Y-952327D2*
X-2487566D1*
X-2457566Y-1005786D2*
X-2413766D1*
X-2399278Y-1000956D1*
X-2394337Y-996015D1*
X-2389508Y-986356D1*
Y-971756D1*
X-2394337Y-962098D1*
X-2399278Y-957156D1*
X-2413766Y-952327D1*
X-2457566D1*
Y-1054415D1*
X-2359508Y-1071261D2*
X-2267191D1*
X-2178903Y-952439D2*
X-2227420D1*
X-2232249Y-996127D1*
X-2227420Y-991298D1*
X-2212820Y-986356D1*
X-2198332D1*
X-2183732Y-991298D1*
X-2173962Y-1000956D1*
X-2169132Y-1015556D1*
Y-1025215D1*
X-2173962Y-1039815D1*
X-2183732Y-1049586D1*
X-2198332Y-1054415D1*
X-2212820D1*
X-2227420Y-1049586D1*
X-2232249Y-1044644D1*
X-2237191Y-1034986D1*
X-2139132Y-952327D2*
X-2100274Y-1054415D1*
X-2061415Y-952327D1*
X-4156846Y621409D2*
Y519322D1*
X-4190875Y621409D2*
X-4122817D1*
X-4092817Y567951D2*
X-4049017D1*
X-4034529Y572780D1*
X-4029587Y577722D1*
X-4024758Y587380D1*
Y601980D1*
X-4029587Y611639D1*
X-4034529Y616580D1*
X-4049017Y621409D1*
X-4092817D1*
Y519322D1*
X-3994758Y502476D2*
X-3902441D1*
X-3794612Y519322D2*
X-3833583Y621409D1*
X-3872441Y519322D1*
X-3857841Y553351D2*
X-3809212D1*
X-3764612Y621409D2*
Y548522D1*
X-3759783Y533922D1*
X-3750012Y524263D1*
X-3735412Y519322D1*
X-3725754D1*
X-3711154Y524263D1*
X-3701383Y533922D1*
X-3696554Y548522D1*
Y621409D1*
X-3666554D2*
Y519322D1*
X-3632524D1*
X-3617924Y524263D1*
X-3608154Y533922D1*
X-3603324Y543693D1*
X-3598495Y558180D1*
Y582551D1*
X-3603324Y597151D1*
X-3608154Y606809D1*
X-3617924Y616580D1*
X-3632524Y621409D1*
X-3666554D1*
X-3568495D2*
Y519322D1*
X-3509295Y621409D2*
X-3519066Y616580D1*
X-3528724Y606809D1*
X-3533666Y597151D1*
X-3538495Y582551D1*
Y558180D1*
X-3533666Y543693D1*
X-3528724Y533922D1*
X-3519066Y524263D1*
X-3509295Y519322D1*
X-3489866D1*
X-3480207Y524263D1*
X-3470437Y533922D1*
X-3465607Y543693D1*
X-3460778Y558180D1*
Y582551D1*
X-3465607Y597151D1*
X-3470437Y606809D1*
X-3480207Y616580D1*
X-3489866Y621409D1*
X-3509295D1*
X-3801617Y941829D2*
Y839742D1*
X-3835646Y941829D2*
X-3767587D1*
X-3737587Y888371D2*
X-3693787D1*
X-3679300Y893200D1*
X-3674358Y898142D1*
X-3669529Y907800D1*
Y922400D1*
X-3674358Y932059D1*
X-3679300Y937000D1*
X-3693787Y941829D1*
X-3737587D1*
Y839742D1*
X-3639529Y822896D2*
X-3547212D1*
X-3483183Y941829D2*
Y839742D1*
X-3517212Y941829D2*
X-3449154D1*
X-3419154Y893200D2*
X-3375466D1*
X-3360866Y898142D1*
X-3355924Y902971D1*
X-3351095Y912629D1*
Y922400D1*
X-3355924Y932059D1*
X-3360866Y937000D1*
X-3375466Y941829D1*
X-3419154D1*
Y839742D1*
X-3385124Y893200D2*
X-3351095Y839742D1*
X-3248207Y917571D2*
X-3253037Y927229D1*
X-3262807Y937000D1*
X-3272466Y941829D1*
X-3291895D1*
X-3301666Y937000D1*
X-3311324Y927229D1*
X-3316266Y917571D1*
X-3321095Y902971D1*
Y878600D1*
X-3316266Y864113D1*
X-3311324Y854342D1*
X-3301666Y844683D1*
X-3291895Y839742D1*
X-3272466D1*
X-3262807Y844683D1*
X-3253037Y854342D1*
X-3248207Y864113D1*
Y878600D1*
X-3272466D1*
X-3387216Y1191469D2*
X-3314328D1*
X-3299728Y1196298D1*
X-3290070Y1206069D1*
X-3285128Y1220668D1*
Y1230327D1*
X-3290070Y1244927D1*
X-3299728Y1254698D1*
X-3314328Y1259527D1*
X-3387216D1*
X-3362845Y1294468D2*
X-3367674D1*
X-3377445Y1299298D1*
X-3382274Y1304127D1*
X-3387104Y1313898D1*
Y1333327D1*
X-3382274Y1342985D1*
X-3377445Y1347814D1*
X-3367674Y1352756D1*
X-3358016D1*
X-3348245Y1347814D1*
X-3333758Y1338156D1*
X-3285128Y1289527D1*
Y1357585D1*
X-1639460Y1657596D2*
Y1584708D1*
X-1634631Y1570108D1*
X-1624860Y1560450D1*
X-1610260Y1555508D1*
X-1600601D1*
X-1586001Y1560450D1*
X-1576231Y1570108D1*
X-1571401Y1584708D1*
Y1657596D1*
X-1492772Y1555508D2*
Y1657484D1*
X-1541401Y1589538D1*
X-1468514D1*
X-3849306Y-2226115D2*
X-3776418D1*
X-3761818Y-2221286D1*
X-3752160Y-2211515D1*
X-3747218Y-2196915D1*
Y-2187257D1*
X-3752160Y-2172657D1*
X-3761818Y-2162886D1*
X-3776418Y-2158057D1*
X-3849306Y-2158056D1*
X-3849194Y-2069769D2*
Y-2118286D1*
X-3805506Y-2123115D1*
X-3810335Y-2118286D1*
X-3815277Y-2103686D1*
Y-2089198D1*
X-3810335Y-2074598D1*
X-3800677Y-2064827D1*
X-3786077Y-2059998D1*
X-3776418D1*
X-3761818Y-2064827D1*
X-3752048Y-2074598D1*
X-3747218Y-2089198D1*
Y-2103686D1*
X-3752048Y-2118286D1*
X-3756989Y-2123115D1*
X-3766648Y-2128057D1*
X-604891Y1711549D2*
Y1638662D1*
X-600062Y1624062D1*
X-590291Y1614403D1*
X-575691Y1609462D1*
X-566033D1*
X-551433Y1614403D1*
X-541662Y1624062D1*
X-536833Y1638662D1*
Y1711549D1*
X-506833Y1692008D2*
X-497062Y1696949D1*
X-482462Y1711437D1*
Y1609462D1*
X-2668215Y802423D2*
Y729535D1*
X-2663386Y714935D1*
X-2653615Y705277D1*
X-2639015Y700335D1*
X-2629357D1*
X-2614757Y705277D1*
X-2604986Y714935D1*
X-2600157Y729535D1*
Y802423D1*
X-2560386Y802311D2*
X-2507040D1*
X-2536127Y763452D1*
X-2521527D1*
X-2511869Y758623D1*
X-2507040Y753794D1*
X-2502098Y739194D1*
Y729535D1*
X-2507040Y714935D1*
X-2516698Y705164D1*
X-2531298Y700335D1*
X-2545898D1*
X-2560386Y705164D1*
X-2565215Y710106D1*
X-2570157Y719764D1*
X116084Y423173D2*
X120801Y413515D1*
X130572Y403744D1*
X140342Y398915D1*
X154942Y393973D1*
X179201D1*
X193801Y398915D1*
X203459Y403744D1*
X213230Y413515D1*
X218059Y423173D1*
Y442602D1*
X213230Y452373D1*
X203459Y462031D1*
X193801Y466861D1*
X179201Y471802D1*
X154942D1*
X140342Y466861D1*
X130572Y462032D1*
X120801Y452373D1*
X116084Y442602D1*
Y423173D1*
X198630Y437773D2*
X227830Y466861D1*
X116196Y511573D2*
Y564919D1*
X155055Y535831D1*
Y550431D1*
X159884Y560090D1*
X164713Y564919D1*
X179313Y569861D1*
X188972D1*
X203572Y564919D1*
X213342Y555261D1*
X218172Y540661D1*
Y526061D1*
X213342Y511573D1*
X208401Y506744D1*
X198742Y501802D1*
X1311247Y506669D2*
X1315964Y497010D1*
X1325735Y487239D1*
X1335506Y482410D1*
X1350106Y477469D1*
X1374364D1*
X1388964Y482410D1*
X1398623Y487239D1*
X1408393Y497010D1*
X1413223Y506668D1*
Y526098D1*
X1408393Y535868D1*
X1398623Y545527D1*
X1388964Y550356D1*
X1374364Y555298D1*
X1350106D1*
X1335506Y550356D1*
X1325735Y545527D1*
X1315964Y535868D1*
X1311247Y526098D1*
Y506669D1*
X1393793Y521268D2*
X1422993Y550356D1*
X1413335Y633927D2*
X1311360D1*
X1379306Y585298D1*
Y658185D1*
M02*
